<svg id="Layer_1" data-name="Layer 1" xmlns="http://www.w3.org/2000/svg" viewBox="0 0 691.18 819.82"><defs><style>.cls-1{fill:#8db6f5;}.cls-2{fill:#95bbf7;}.cls-3{fill:#e5e6e6;}.cls-4{fill:#e2e3e3;}.cls-5{fill:#dadadb;}.cls-6{fill:#ececec;}.cls-7{fill:#24296b;}.cls-8{fill:#7dacf0;}.cls-9{fill:#428cfb;}.cls-10{fill:#1a1f58;}.cls-11{fill:#8cb5f4;}.cls-12{fill:#a0c2fb;}.cls-13{fill:#161b50;}.cls-14{fill:#1d225f;}.cls-15{fill:#212667;}.cls-16{fill:#9bbff9;}.cls-17{fill:#d5d6d8;}.cls-18{fill:#d52b2b;}.cls-19{fill:#e34240;}.cls-20{fill:#fdbdb5;}.cls-21{fill:#2175db;}.cls-22{fill:#fbbc5a;}.cls-23{fill:#181d56;}.cls-24{fill:#fefefe;}.cls-25{fill:#2779e2;}.cls-26{fill:#3d89f7;}.cls-27{fill:#3281ec;}.cls-28{fill:#3583f0;}.cls-29{fill:#e9eaea;}.cls-30{fill:#dedfdf;}</style></defs><title>clip-girl-study-1</title><path class="cls-1" d="M9,852c2.64-18.94,13.12-32.26,29.75-41C42.66,809,47,807.62,51.09,806c2.95-.31,5.91-.88,8.86-.9,17.77-.12,35.53-.09,53.3-.15q27.87-.09,55.76-.23c3.64.07,7.28.18,10.92.2l67.07.21a7.64,7.64,0,0,1-.34,2.43c-4.52,9-9.2,18-13.65,27-2.83,5.75-5.35,11.64-8,17.46Z" transform="translate(26.15 -32.18)"/><path class="cls-2" d="M225,852c2.66-5.82,5.18-11.71,8-17.46,4.45-9,9.13-18,13.65-27a7.64,7.64,0,0,0,.34-2.43q47.1-.09,94.19-.19c16.61,0,33.21-.15,49.82-.22,2.48.07,4.95.19,7.43.2l54.56.21c-.49,1.34-.89,2.71-1.48,4-2.82,6.23-5.69,12.44-8.54,18.66q-50.67.09-101.34.24a47,47,0,0,0-6.71,1l.09,0L331,830l.07,0-2.29,1c-10,3.7-15.87,11-18.73,21Z" transform="translate(26.15 -32.18)"/><path class="cls-3" d="M463,829h76c.79.65,1.53,1.8,2.37,1.88,4,.37,4.84,2.83,4.6,6.26-.36,4.94-.64,9.88-1,14.83H465c0-4.61-.48-9.28.16-13.8C465.66,834.62,465.46,831.69,463,829Z" transform="translate(26.15 -32.18)"/><path class="cls-4" d="M463,829c2.46,2.65,2.66,5.58,2.16,9.16-.64,4.52-.16,9.19-.16,13.8H386q.5-11.47,1-23Z" transform="translate(26.15 -32.18)"/><path class="cls-5" d="M387,829.05q-.48,11.48-1,23H310c2.86-10,8.78-17.33,18.74-21l2.28-1-.07,0,4.07-1-.09,0Z" transform="translate(26.15 -32.18)"/><path class="cls-6" d="M545,852c.32-5,.6-9.89,1-14.83.24-3.43-.58-5.89-4.6-6.26-.84-.08-1.58-1.23-2.37-1.88h57v23Z" transform="translate(26.15 -32.18)"/><path class="cls-7" d="M117.09,291c-13.72-16.29-7.28-35.61,13.67-39.93,8.73-1.81,15.34-5.29,19.4-13.69,2.82-5.81,7.07-7.17,13.39-6,.49.08,1,.27,1.45.37,13.64,2.89,14.15,2.55,21.4-9.66a23.71,23.71,0,0,1,7.56-7.52c-3.36,5.08-6.69,10.17-10.08,15.22-2.64,3.94-6.35,5.84-11.1,5.23-2.8-.36-5.56-1-8.32-1.58-6.82-1.45-10.22-.44-13.29,5.7-3.95,7.89-10,12-18.58,13.24-8.7,1.3-16,5.2-19.28,13.84-1.35,3.55-1.21,7.66-1.75,11.52l1.8.28c.42-1.3.86-2.59,1.25-3.89,3.33-11.24,12.54-18,24.29-17.34,6.62.39,11-2,14.24-7.81,5.78-10.32,8.18-11.44,19.33-8.51,7.8,2.06,13.39.25,18.11-6.44,7-10,13.09-11.15,23.8-5.08,4.32,2.45,8.26,5.58,12.33,8.46,8.06,5.71,16.2,6.67,24.38.38,6.93-5.33,14.53-6.06,22.69-3.79,2.72.75,5.47,1.43,8.24,2,7.55,1.61,14.86,1.78,21-4.37l1.34,1c-1.39,2.89-2.43,6-4.26,8.59-2.3,3.24-5.31,6-7.89,9a12,12,0,0,0-1.75,13.94c.36.74.74,1.48,1.11,2.22,5.68,11.38,5.38,13.12-3.68,22.13-6.77,6.73-7,8.18-.71,15.64,4.92,5.83,3.77,18.14-3.24,21.36-3.25-4-6.21-8.19-9.8-11.78-6.2-6.2-12.33-7.34-19.91-3.09-9,5.08-16.7,3.92-24.05-3a60.74,60.74,0,0,0-8.66-6.74c-8-5.21-11.92-4-15.77,4.79-1.76,4-3.45,8.11-8.78,8.38-2-.83-4.24-1.28-5.86-2.55-6.59-5.15-13.79-5.42-21.66-4a49.08,49.08,0,0,1-14.76.5C140.52,306.16,129.1,297.84,117.09,291Z" transform="translate(26.15 -32.18)"/><path class="cls-8" d="M596.29,580c8.76.69,17.75.35,26.23,2.26,26,5.87,43.08,29.45,42.49,57.19-.52,24.56-20.13,47.94-45,52.2-9.73,1.66-19.88,1-29.83,1.39-2.12.1-4.23.48-6.34.73a38.79,38.79,0,0,0-5.32-.71c-19.18,0-38.36.08-57.54.13-2.15,0-4.3-.15-6.44-.16q-27.8-.1-55.58-.17l0-22.72,38-.22q54.16,0,108.33.11c11.39,0,20.17-5.09,26.67-14,13-18,5.57-48-23.07-52.75a1.37,1.37,0,0,0-.89-.1l-95.09,0H497l-38-.21L459,581l16.92-.92,29.11-.28,21,.25a19.8,19.8,0,0,0,4.21.9q30.24.09,60.48,0a20.47,20.47,0,0,0,4.22-.88Z" transform="translate(26.15 -32.18)"/><path class="cls-9" d="M64.86,579.11c-26.61-4.15-46.66-29-46-56.84.31-13.92,5.36-25.84,14.23-36.33a14,14,0,0,1,3.31-.84q42.33,0,84.66.18c.66,5.53,1.3,11.07,2,16.6a24.15,24.15,0,0,0,.8,3.31A56.44,56.44,0,0,1,125.9,513c.26,2.07-.51,4.25-.53,6.39q-.18,18.4-.2,36.82c0,2.9.42,5.81.24,8.7-.3,5-.91,9.94-1.39,14.91Z" transform="translate(26.15 -32.18)"/><path class="cls-10" d="M529.2,444.06,514,467l-8,7.27c-3.31.25-6.62.62-9.93.73-21.27.73-42.55,1.32-63.83,2.14-8.09.32-16.17,1.15-24.26,1.74-12.7-.29-25.42-.42-38.12-.95-7.59-.31-15.15-1.25-22.73-1.91-1-12.55-1.91-25.1-3-37.63-.91-10.71-2-21.4-3-32.1l2.6-.36c3.71,1.42,7.31,3.38,11.15,4.16,17.82,3.6,35.72,6.84,53.58,10.28q30,5.78,59.89,11.67Q498.81,438,529.2,444.06Z" transform="translate(26.15 -32.18)"/><path class="cls-11" d="M341.18,406.25c1,10.7,2.05,21.39,3,32.1,1.07,12.53,2,25.08,3,37.63.16,3.34-2.2,2.93-4.37,3A173,173,0,0,1,287,473l-16.14-6.06c-3.07-1.6-6.16-3.18-9.22-4.81-15.12-8.05-28.78-17.94-39.61-31.4q4.47-16.35,9-32.7c5.56,0,11.15-.22,16.7.18,15.59,1.13,31.16,2.57,46.75,3.76,1.5.11,3.07-.68,4.6-1.05,11.92,7.59,24.81,8.09,38.19,5.36A19.21,19.21,0,0,1,341.18,406.25Z" transform="translate(26.15 -32.18)"/><path class="cls-12" d="M231,398q-4.49,16.35-9,32.7l-14,28.37c-1.31,2.64-2.65,5.27-4,7.9-3.14,4.22-6.29,8.42-9.41,12.65C188.89,487.4,183,490,175.1,487.43c-10.85-3.59-19.82-9.75-25.11-20.33.37-1.37.75-2.74,1.12-4.11,4.81,3.1,9.62,6.23,14.45,9.31,4.32,2.76,5.95,2.29,6.41-2.61.67-7.19.72-14.45,1-21.68q1-8.5,2-17a14.64,14.64,0,0,0,1-2.18q6.75-25.86,13.39-51.74c.24-.93-.25-2-.4-3.08q3.54-10.38,7.09-20.77c.68-1.62,1.47-3.21,2-4.88,2.71-8.22,4.71-16.77,11-23.31,13.31-7.17,15.83-3.71,28.08,7.82-1.07,1.87-2.9,3.67-3,5.61-.43,5.35.12,10.78-.2,16.14C233.1,369.09,232,383.54,231,398Z" transform="translate(26.15 -32.18)"/><path class="cls-6" d="M40,782.7q0-33.29,0-66.57h97V782.8c-19.58.06-39.15.16-58.73.16C65.51,783,52.74,782.79,40,782.7Z" transform="translate(26.15 -32.18)"/><path class="cls-13" d="M394.07,407.88c8.88-1,17.94-1.18,26.61-3.13,18.77-4.22,28.21-16.06,29.31-35.26.63-11.11.93-22.25,1.79-33.35a33.59,33.59,0,0,1,9.93-21.27c6.73-6.84,8.69-14.71,6-23.8-3.91-13.31-1-24.93,8.46-35,1.85-.11,3.87-.78,5.5-.24,6.14,2,12.14,4.45,18.2,6.73l33.46,12.57,14.5,6.16L540.77,297c-3.19-2.54-7-4.6-9.4-7.75-2.53-3.31-4.14-3.11-7.22-1.06-13.41,8.93-21.48,21.19-24.25,37.09-1.4,8-.45,16.69-5.91,23.72-5.85,3.11-11.52,6.65-17.58,9.25C463.55,363.75,457.08,372.3,457,385c-1.35,5.21-1.93,10.81-4.27,15.53-1.83,3.68-5.34,8-9,9.05-12.58,3.76-25.71,3.65-38.69,2.14C401.31,411.28,397.73,409.21,394.07,407.88Z" transform="translate(26.15 -32.18)"/><path class="cls-13" d="M521,693.17c19.18,0,38.36-.13,57.54-.13a38.79,38.79,0,0,1,5.32.71c26.94,6.07,45.09,27.92,45.6,54.91.5,26.18-16.64,48.06-43.49,55.53l-1.09-.19-2.81.57-61.07.09q0-10.75,0-21.5c16.64,0,33.27,0,49.9-.21a45.7,45.7,0,0,0,9.84-1.07c16.27-3.76,27.2-19.82,25.23-36.76C604.09,729,590.15,716.21,573.89,716c-17.62-.21-35.26-.2-52.88-.29Z" transform="translate(26.15 -32.18)"/><path class="cls-6" d="M78,669.88c0-20.47,0-40.93,0-61.4a28.48,28.48,0,0,0-1-5.26l82-.1q0,10.54,0,21.09,0,22.83,0,45.67Z" transform="translate(26.15 -32.18)"/><path class="cls-14" d="M394.07,407.88c3.66,1.33,7.24,3.4,11,3.84,13,1.51,26.11,1.62,38.69-2.14,3.63-1.08,7.14-5.37,9-9.05,2.34-4.72,2.92-10.32,4.27-15.53,3,.83,5.94,1.86,9,2.45,15,2.93,30.12,5.63,45.15,8.62,14.21,2.84,28.37,5.95,42.55,8.93L529.2,444.06q-30.41-6-60.8-12.06-29.94-5.88-59.89-11.67c-17.86-3.44-35.76-6.68-53.58-10.28-3.84-.78-7.44-2.74-11.15-4.16,14.36-5.19,28.76-6.26,43.25-.44C389.33,406.38,391.72,407.08,394.07,407.88Z" transform="translate(26.15 -32.18)"/><path class="cls-7" d="M494,349c5.46-7,4.51-15.69,5.91-23.72,2.77-15.9,10.84-28.16,24.25-37.09,3.08-2.05,4.69-2.25,7.22,1.06,2.4,3.15,6.21,5.21,9.4,7.75,1.85,1.07,3.58,2.46,5.55,3.16,10.58,3.76,21.34,7,31.78,11.13,6.21,2.44,11.93,6.1,17.87,9.21q-9.62,21-19.24,41.92c-.75,1.63-1.79,3.13-2.69,4.69-2-1-3.83-2.57-5.92-3-13.39-2.69-26.85-5.08-40.25-7.7-4.46-.86-9-3.4-13.21-2.88C507,354.5,500.71,351.15,494,349Z" transform="translate(26.15 -32.18)"/><path class="cls-4" d="M576.1,490.92a29.72,29.72,0,0,0-1.05,5.59c-.09,20.2-.07,40.39-.08,60.58-3.14.2-6.29.55-9.44.57-19.83.12-39.65.16-59.48.23a4.44,4.44,0,0,0,.1-.62l7.38-48.35c.88-5.76,1.77-11.52,2.75-17.9H457c-18.89,0-37.78,0-56.68,0a36.53,36.53,0,0,1-5.25-.77l12.95-.35h98q32.47.07,65,.21A29.58,29.58,0,0,1,576.1,490.92Z" transform="translate(26.15 -32.18)"/><path class="cls-15" d="M494,349c6.72,2.16,13,5.51,20.67,4.54,4.21-.52,8.75,2,13.21,2.88,13.4,2.62,26.86,5,40.25,7.7,2.09.42,4,2,5.92,3L553.68,405c-14.18-3-28.34-6.09-42.55-8.93-15-3-30.11-5.69-45.15-8.62-3-.59-6-1.62-9-2.45.08-12.7,6.55-21.25,19.41-26.76C482.47,355.64,488.14,352.1,494,349Z" transform="translate(26.15 -32.18)"/><path class="cls-16" d="M521,804.66l61.07-.09,2.81-.57,1.09.19c5.94.25,11.87.58,17.81.73,4.8.12,9.61,0,14.82,0v22.55a29.59,29.59,0,0,1-3.66.43q-84.75,0-169.48,0c-.83,0-1.66-.13-2.49-.2,2.85-6.22,5.72-12.43,8.54-18.66.59-1.29,1-2.66,1.48-4,3-.06,5.95-.17,8.93-.19Q491.47,804.75,521,804.66Z" transform="translate(26.15 -32.18)"/><path class="cls-17" d="M121,485.28q-42.33-.11-84.66-.18a14,14,0,0,0-3.31.84,57.45,57.45,0,0,0-6.22-.88c-3.82-.14-7.78-.67-11.45.07-14.4,2.92-22.76-5.43-30.6-15.4-3.05-3.88-6.76-7.23-10.92-11.62H43.24c-.44,2.27-.87,4.53-1.31,6.8,0,.27-.11.54-.17.81l.1-.88,7-6.86c13.94,0,27.88.39,41.8-.11,9.28-.33,17.84-.06,23.54,8.72.16.24.56.33.85.49l7,7.75c2.86,3.21,5.73,6.41,9.34,10.45Z" transform="translate(26.15 -32.18)"/><path class="cls-15" d="M137,716.12H40l-21-.35-.86-.77V692.52H52.85c2,.16,3.93.47,5.89.47q55.14.12,110.27.18v22.56Z" transform="translate(26.15 -32.18)"/><path class="cls-18" d="M533.35,275.15l-33.46-12.57c-6.06-2.28-12.06-4.7-18.2-6.73-1.63-.54-3.65.13-5.5.24,1.28-10.39,2.53-20.78,3.84-31.17.61-4.88,1.7-5.49,6.6-4.13,20,5.58,39.82,11.61,60,16.47,10.76,2.6,22,3,33,4.7,3.89.59,7.67,2,12.14,3.14-6.23,8.19-14.6,12.3-22.48,17L560.51,257a41.64,41.64,0,0,0-3.63,4.48c-1.51,2.47-2.74,5.11-4.09,7.68Z" transform="translate(26.15 -32.18)"/><path class="cls-15" d="M40,782.7c12.76.09,25.53.26,38.29.26,19.58,0,39.15-.1,58.73-.16l32,.37v21.5q-27.88.12-55.76.23c-17.77.06-35.53,0-53.3.15-3,0-5.91.59-8.86.9H18.3V782.7Z" transform="translate(26.15 -32.18)"/><path class="cls-16" d="M169,693.17q-55.14-.09-110.27-.18c-2,0-3.93-.31-5.89-.47V669.88H159l19,.22q0,11.37,0,22.74Z" transform="translate(26.15 -32.18)"/><path class="cls-16" d="M159,603.12l-82,.1c-6.78-.05-13.56-.18-20.33-.09-2.73,0-3.87-.85-3.79-3.69.16-5.12.17-10.25,0-15.37-.11-3,.84-4.14,3.93-4.07a60.28,60.28,0,0,0,8.09-.89l59.16.72,54,.24c-1,3.28-2.45,6.51-2.84,9.86-.5,4.27-.13,8.64-.14,13Z" transform="translate(26.15 -32.18)"/><path class="cls-19" d="M552.79,269.11c1.35-2.57,2.58-5.21,4.09-7.68a41.64,41.64,0,0,1,3.63-4.48l8.77,5.19,45,29.69c1,.62,1.88,1.26,2.82,1.9a22.72,22.72,0,0,0-1.05,4.79c-.1,8.4,0,16.8,0,25.2L596,320.5c-5.93-3.12-11.65-6.78-17.86-9.22-10.44-4.1-21.2-7.37-31.78-11.13-2-.7-3.7-2.09-5.55-3.16l7.08-15.68Z" transform="translate(26.15 -32.18)"/><path class="cls-20" d="M209.12,325.05c-6.29,6.54-8.29,15.09-11,23.31-.55,1.67-1.34,3.26-2,4.88-4.53-5.42-8.92-11-13.69-16.17-.9-1-3.45-1.12-5-.71-6.2,1.65-12.21,4.58-18.48,5.25-4.6.5-9.55-1.62-14.25-2.92-1.67-.46-2.93-2.34-4.6-2.87-6.35-2-9.25-5.82-7.19-12.55,2.92-2.12,6.73-3.48,7.14-7.92l-8.3,6.17c-1.31-1.66-2.34-3.71-4-4.94-8.66-6.46-13.28-14.48-10.68-25.58,12,6.84,23.43,15.16,37.59,17a49.08,49.08,0,0,0,14.76-.5c7.87-1.41,15.07-1.14,21.66,4,1.62,1.27,3.89,1.72,5.86,2.55Z" transform="translate(26.15 -32.18)"/><path class="cls-2" d="M231,398c1-14.46,2.1-28.91,2.95-43.38.32-5.36-.23-10.79.2-16.14.15-1.94,2-3.74,3-5.61,4,4.55,8.7,8.67,11.9,13.74,9.83,15.59,22.31,28.77,35.67,41.24,4.71,4.4,9.52,8.7,14.28,13-1.53.37-3.1,1.16-4.6,1.05-15.59-1.19-31.16-2.63-46.75-3.76C242.15,397.78,236.56,398,231,398Z" transform="translate(26.15 -32.18)"/><path class="cls-21" d="M576.1,490.92a29.58,29.58,0,0,0-5.13-.87q-32.47-.18-65-.21,0-7.81,0-15.61l8-7.27h82c0,7.35.18,14.29-.2,21.19-.05,1-2.73,2.63-4.26,2.72C586.44,491.19,581.26,491,576.1,490.92Z" transform="translate(26.15 -32.18)"/><path class="cls-21" d="M506.05,557.89c19.83-.07,39.65-.11,59.48-.23,3.15,0,6.3-.37,9.44-.57h21.32V580l-1.34.1-68.91,0-21-.25Z" transform="translate(26.15 -32.18)"/><path class="cls-11" d="M189,374c.15,1,.64,2.15.4,3.08Q182.81,403,176,428.83a14.64,14.64,0,0,1-1,2.18c-1.36-1.21-2.73-2.4-4.06-3.64-3-2.82-5.33-3-7.75,1A63.88,63.88,0,0,1,155.13,439c-4.17,4.45-5.9,8.86-1.75,14.17-9.54-.42-19.08-.74-28.61-1.38-1.3-.09-2.49-1.79-3.73-2.74,1.37-9.4-3.23-16.47-9-23.09a105.12,105.12,0,0,1,41.62-8,9.72,9.72,0,0,0,9.14-4.67Q175.92,393.7,189,374Z" transform="translate(26.15 -32.18)"/><path class="cls-20" d="M112.05,426c5.76,6.62,10.36,13.69,9,23.09-5.92-1.38-11.86-2.7-17.76-4.16-5-1.24-9.67-1.72-14.94-.2-11.52,3.31-23.31,5.66-35,8.41-5.9-4.5-5.65-6.24,1.33-9.43,1.92-.88,3.82-1.82,5.72-2.73l8.94-.91.22-1.29L64,435l5.68-10c3.53,1.39,7.22,2.48,10.55,4.24,6,3.14,11.83,3.77,18.18,1.27C102.82,428.73,107.48,427.47,112.05,426Z" transform="translate(26.15 -32.18)"/><path class="cls-18" d="M616,323.72c0-8.4-.08-16.8,0-25.2a22.72,22.72,0,0,1,1.05-4.79c13.12,7.07,28.14,10.48,40.25,20.6C644.42,322.93,630.6,325,616,323.72Z" transform="translate(26.15 -32.18)"/><path class="cls-19" d="M375.9,94.48,393.46,75,412.89,92.5,395.42,112Z" transform="translate(26.15 -32.18)"/><path class="cls-18" d="M60.4,441c-1.9.91-3.8,1.85-5.72,2.73-7,3.19-7.23,4.93-1.33,9.43q-1.7,1.51-3.38,3l-4.88-2.72-1-.57a47.88,47.88,0,0,1,2.22-5.43c4.61-8.42,9.32-16.79,14-25.17l20.3-35.6,7.53,4.2L69.64,425,64,435Z" transform="translate(26.15 -32.18)"/><path class="cls-7" d="M36.18,198.16l19.83,1c-.33,6.5-.66,12.86-1,19H36.18Z" transform="translate(26.15 -32.18)"/><path class="cls-7" d="M281,85.91,294.1,71.4c4.9,4.4,9.54,8.58,14.51,13.06l-13,14.64Z" transform="translate(26.15 -32.18)"/><path class="cls-22" d="M366.8,104.11c-42.84,16-75.24,45.31-103.73,80a26.31,26.31,0,0,1,2-3.5c3.19-4.05,6.54-8,9.72-12,2-2.54,5.59-4.54,3.47-8.75,2.76-1.31,6-2.12,8.2-4,8.34-7.13,16.12-14.93,24.56-21.92a182.9,182.9,0,0,1,48.71-29c2.09-.84,4.28-1.43,6.42-2.14Z" transform="translate(26.15 -32.18)"/><path class="cls-20" d="M60.32,422.28c-4.67,8.38-9.38,16.75-14,25.17a47.88,47.88,0,0,0-2.22,5.43,17.87,17.87,0,0,1-3.24,1.21,14.9,14.9,0,0,1-3.19-.09,16.4,16.4,0,0,1,.45-3.53c2.63-7.43,5.81-14.71,7.87-22.29,1.12-4.09,3-5.89,6.87-6C55.35,422.08,57.84,422.23,60.32,422.28Z" transform="translate(26.15 -32.18)"/><path class="cls-22" d="M281,105.06c-22.28,15.26-34,38.05-44.11,62C237.21,149.66,266.16,109,281,105.06Z" transform="translate(26.15 -32.18)"/><path class="cls-9" d="M385.13,183.23c-.67-4.45-1.28-8.45-1.95-12.88l12.13-1.65c.64,4.36,1.23,8.35,1.89,12.77Z" transform="translate(26.15 -32.18)"/><path class="cls-7" d="M400.35,229.48c-1.18,3.86-2.18,7.13-3.31,10.86l-10.84-3.15c1.1-3.69,2.09-7.06,3.22-10.87Z" transform="translate(26.15 -32.18)"/><path class="cls-19" d="M14.07,154l10.35-3,3.1,10.25L17.4,164.39C16.3,161,15.28,157.76,14.07,154Z" transform="translate(26.15 -32.18)"/><path class="cls-22" d="M66.42,208c12.7,3.82,24.24,9.47,31.17,21.69C89.52,219.09,77.93,213.67,66.42,208Z" transform="translate(26.15 -32.18)"/><path class="cls-22" d="M232.61,37.68c-1.83,1.31-3.88,3.9-5.41,3.62-1.95-.36-3.48-3-5.19-4.71,1.58-1.57,3.11-4.31,4.78-4.4,1.89-.11,3.91,2.15,5.88,3.39Z" transform="translate(26.15 -32.18)"/><path class="cls-22" d="M350.94,138.67c2,3.23,4.09,5.15,3.92,6.85s-2.75,2.9-4.27,4.34c-1.51-1.64-3.9-3.11-4.26-5C346.08,143.57,348.56,141.72,350.94,138.67Z" transform="translate(26.15 -32.18)"/><path class="cls-7" d="M45.09,453.45,50,456.17,48.89,458l-7,6.86.07.07c.44-2.27.87-4.53,1.31-6.8Q44.16,455.79,45.09,453.45Z" transform="translate(26.15 -32.18)"/><path class="cls-22" d="M356,253.46c1.76,2.41,3.75,4,3.46,5a5.75,5.75,0,0,1-3.84,3.41c-.92.17-3.25-2.14-3.21-3.28C352.43,257.17,354.24,255.78,356,253.46Z" transform="translate(26.15 -32.18)"/><path class="cls-22" d="M108.66,129.27c-2.45,1.61-3.93,3.35-5.36,3.29-1.15,0-3.29-2.46-3.08-3.42a5.55,5.55,0,0,1,3.6-3.54C104.85,125.39,106.34,127.41,108.66,129.27Z" transform="translate(26.15 -32.18)"/><path class="cls-7" d="M131.75,321.52l8.3-6.17c-.41,4.44-4.22,5.8-7.14,7.92l-6,.89-.29-1.16Z" transform="translate(26.15 -32.18)"/><path class="cls-22" d="M149,137c1.42,1.8,3,3,2.86,3.85a4.65,4.65,0,0,1-2.77,3.06c-.71.2-2.84-1.57-2.82-2.41C146.3,140.26,147.68,139,149,137Z" transform="translate(26.15 -32.18)"/><path class="cls-22" d="M72,101.45c-1.94,1.22-3,2.43-4.14,2.44-.88,0-2.64-1.7-2.49-2.2.34-1.15,1.51-2.69,2.51-2.84S70,100.14,72,101.45Z" transform="translate(26.15 -32.18)"/><path class="cls-7" d="M18.12,715l.86.77Z" transform="translate(26.15 -32.18)"/><path class="cls-14" d="M169,804.67v-21.5l28-.37h71l59,0c2.31.06,4.62.16,6.93.17l57.08.17v21.52c-16.61.07-33.21.18-49.82.22q-47.1.12-94.19.19l-67.07-.21C176.29,804.85,172.65,804.74,169,804.67Z" transform="translate(26.15 -32.18)"/><path class="cls-23" d="M391,804.67V783.15l13-.33h70l47,.35q0,10.76,0,21.5-29.53.11-59.08.23c-3,0-5.95.13-8.93.19l-54.56-.21C396,804.86,393.49,804.74,391,804.67Z" transform="translate(26.15 -32.18)"/><path class="cls-24" d="M335,828.94,331,830Z" transform="translate(26.15 -32.18)"/><path class="cls-24" d="M331,830l-2.28,1Z" transform="translate(26.15 -32.18)"/><path class="cls-17" d="M497,603.09h16l95.09,0,.89.1C637.57,608,645.05,638,632,656c-6.5,8.95-15.28,14.06-26.67,14q-54.17-.09-108.33-.11c-.11-2.47-.29-4.95-.31-7.42q-.29-28.26-.47-56.53A10.62,10.62,0,0,1,497,603.09Z" transform="translate(26.15 -32.18)"/><path class="cls-5" d="M497,603.09a10.62,10.62,0,0,0-.78,2.86q.18,28.26.47,56.53c0,2.47.2,4.95.31,7.42l-38,.22-38-.24c-.33-18.58-.61-37.16-1-55.75-.13-5.84,4.59-9.86,10.56-9.33,2.08.18,4.28-1.07,6.43-1.67l22-.25Z" transform="translate(26.15 -32.18)"/><path class="cls-23" d="M521,693.17v22.55l-46,.4H405l-14-.37V693.16c2.33,0,4.66-.15,7-.15q30.5-.1,61-.17,27.78.07,55.58.17C516.71,693,518.86,693.12,521,693.17Z" transform="translate(26.15 -32.18)"/><path class="cls-11" d="M459,692.84q-30.5.07-61,.17c-2.33,0-4.66.1-7,.15l-39-.34V670.1l3-.22h66l38,.24Z" transform="translate(26.15 -32.18)"/><path class="cls-25" d="M506.05,557.89l-1,21.92-29.11.28-18.86,0-50-.28q.5-11,1-21.93c2,0,3.95-.13,5.92-.15q16.53-.24,33.07-.44c11.1.13,22.21.36,33.32.37,8.61,0,17.23-.27,25.84-.42A4.44,4.44,0,0,1,506.05,557.89Z" transform="translate(26.15 -32.18)"/><path class="cls-11" d="M407,579.84l50,.28L459,581l0,21.87-22,.25H414.93l-20.87,0L374,602.9q1-11.42,2-22.81Z" transform="translate(26.15 -32.18)"/><path class="cls-11" d="M526,580.06l68.91,0a20.47,20.47,0,0,1-4.22.88q-30.24.09-60.48,0A19.8,19.8,0,0,1,526,580.06Z" transform="translate(26.15 -32.18)"/><path class="cls-16" d="M459,581l-1.94-.89,18.86,0Z" transform="translate(26.15 -32.18)"/><path class="cls-5" d="M513,603.09h0Z" transform="translate(26.15 -32.18)"/><path class="cls-5" d="M608.93,603.22l-.89-.1A1.37,1.37,0,0,1,608.93,603.22Z" transform="translate(26.15 -32.18)"/><path class="cls-26" d="M178,580.07l-54-.24c.48-5,1.09-9.93,1.39-14.91.18-2.89-.24-5.8-.24-8.7q0-18.4.2-36.82c0-2.14.79-4.32.53-6.39a56.44,56.44,0,0,0-2.08-7.82,24.15,24.15,0,0,1-.8-3.31c-.71-5.53-1.35-11.07-2-16.6H131.4c-3.61-4-6.48-7.24-9.34-10.45.91-4.84,4.75-3.58,7.91-3.85,3.38-.29,7.69,1.54,9-3.73l11-.15c5.29,10.58,14.26,16.74,25.11,20.33,7.87,2.6,13.79,0,19.52-7.81,3.12-4.23,6.27-8.43,9.41-12.65l22,.31q0,56.28,0,112.56Z" transform="translate(26.15 -32.18)"/><path class="cls-27" d="M407,579.84l-31,.25H353a2.37,2.37,0,0,0-.92,0l-62.05,0-5-.22q0-23.22,0-46.44V495.69a17.1,17.1,0,0,0-.11-4c-1.56-6.51-.17-12.66,2.12-18.73a173,173,0,0,0,55.74,6c2.17-.11,4.53.3,4.37-3,7.58.66,15.14,1.6,22.73,1.91,12.7.53,25.42.66,38.12.95q0,5.51,0,11l-12.95.35c-15.72,1.46-28.27,12.56-30.89,27.31-2.55,14.37,5.5,29.6,18.93,36.54,7.95,4.1,16.57,2.78,24.9,3.86Q407.51,568.88,407,579.84Z" transform="translate(26.15 -32.18)"/><path class="cls-25" d="M408,489.85q0-5.5,0-11c8.09-.59,16.17-1.42,24.26-1.74,21.28-.82,42.56-1.41,63.83-2.14,3.31-.11,6.62-.48,9.93-.73q0,7.8,0,15.61Z" transform="translate(26.15 -32.18)"/><path class="cls-28" d="M287,473c-2.29,6.07-3.68,12.22-2.12,18.73a17.1,17.1,0,0,1,.11,4V533.4q0,23.22,0,46.44H226q0-56.28,0-112.56l44.86-.37Z" transform="translate(26.15 -32.18)"/><path class="cls-24" d="M270.87,466.91l-44.86.37L204,467c1.32-2.63,2.66-5.26,4-7.9l14-28.37c10.83,13.46,24.49,23.35,39.61,31.4C264.71,463.73,267.8,465.31,270.87,466.91Z" transform="translate(26.15 -32.18)"/><path class="cls-24" d="M150,467.1l-11,.15-23.93-.17c-.29-.16-.69-.25-.85-.49-5.7-8.78-14.26-9-23.54-8.72-13.92.5-27.86.12-41.8.11L50,456.17q1.68-1.53,3.38-3c11.68-2.75,23.47-5.1,35-8.41,5.27-1.52,10-1,14.94.2,5.9,1.46,11.84,2.78,17.76,4.16,1.24.95,2.43,2.65,3.73,2.74,9.53.64,19.07,1,28.61,1.38.81,1,1.64,1.95,2.46,2.93L151.11,463C150.74,464.36,150.36,465.73,150,467.1Z" transform="translate(26.15 -32.18)"/><path class="cls-20" d="M155.84,456.13c-.82-1-1.65-1.95-2.46-2.93-4.15-5.31-2.42-9.72,1.75-14.17a63.88,63.88,0,0,0,8.09-10.65c2.42-4,4.74-3.83,7.75-1,1.33,1.24,2.7,2.43,4.06,3.64q-1,8.49-2,17Z" transform="translate(26.15 -32.18)"/><path class="cls-2" d="M155.84,456.13,173,448c-.32,7.23-.37,14.49-1,21.68-.46,4.9-2.09,5.37-6.41,2.61-4.83-3.08-9.64-6.21-14.45-9.31Z" transform="translate(26.15 -32.18)"/><path class="cls-29" d="M197,782.8l-28,.37-32-.37V716.12l32-.39,29,.38c0,15,.1,29.93-.05,44.89C197.88,768.27,197.33,775.53,197,782.8Z" transform="translate(26.15 -32.18)"/><path class="cls-6" d="M552.79,269.11l-4.94,12.2-14.5-6.16Z" transform="translate(26.15 -32.18)"/><path class="cls-17" d="M475,716.12l46-.4c17.62.09,35.26.08,52.88.29,16.26.2,30.2,13,32.08,29.11,2,16.94-9,33-25.23,36.76A45.7,45.7,0,0,1,570.9,783c-16.63.16-33.26.16-49.9.21l-47-.35c.33-5.94.91-11.87.95-17.82C475.09,748.7,475,732.41,475,716.12Z" transform="translate(26.15 -32.18)"/><path class="cls-7" d="M584.89,804l-2.81.57Z" transform="translate(26.15 -32.18)"/><path class="cls-29" d="M159,603.12l16-.22,38,.21c.88,1.21,1.53,3.15,2.67,3.49,2.88.88,3.33,2.64,3.37,5.23.26,19.35.62,38.7,1,58.06l-42,.22-19-.23q0-22.83,0-45.67Q159,613.67,159,603.12Z" transform="translate(26.15 -32.18)"/><path class="cls-17" d="M408,557.91c-8.33-1.08-16.95.24-24.9-3.86-13.43-6.94-21.48-22.17-18.93-36.54,2.62-14.75,15.17-25.85,30.89-27.31a36.53,36.53,0,0,0,5.25.77c18.9.06,37.79,0,56.68,0-1.52,9.07-3.19,18.13-4.55,27.23-1.93,13-3.64,26-5.45,39.07q-16.53.21-33.07.44C412,557.78,410,557.86,408,557.91Z" transform="translate(26.15 -32.18)"/><path class="cls-5" d="M447,557.32c1.81-13,3.52-26.07,5.45-39.07,1.36-9.1,3-18.16,4.55-27.23h59.29c-1,6.38-1.87,12.14-2.75,17.9l-7.38,48.35c-8.61.15-17.23.43-25.84.42C469.2,557.68,458.09,557.45,447,557.32Z" transform="translate(26.15 -32.18)"/><path class="cls-9" d="M115.08,467.08l23.93.17c-1.35,5.27-5.66,3.44-9,3.73-3.16.27-7-1-7.91,3.85Z" transform="translate(26.15 -32.18)"/><path class="cls-7" d="M41.86,464.84l-.1.88c.06-.27.12-.54.17-.81Z" transform="translate(26.15 -32.18)"/><path class="cls-14" d="M198,716.11l-29-.38V693.17l9-.33H352l39,.34v22.59c-1.81.06-3.63.18-5.44.19l-44.57.18H198Z" transform="translate(26.15 -32.18)"/><path class="cls-2" d="M275,692.83H178q0-11.37,0-22.74l42-.21,55,.22Z" transform="translate(26.15 -32.18)"/><path class="cls-2" d="M213,603.11l-38-.21c0-4.33-.36-8.7.14-13,.39-3.35,1.85-6.58,2.84-9.86l48-.23h59l5,.22c-1.47,4.49-3.93,5.08-11.6,1.8-.14,7.39-.26,14.21-.38,21l-47.07.22H213Z" transform="translate(26.15 -32.18)"/><path class="cls-24" d="M60.4,441,64,435l5.6,3.8-.22,1.29Z" transform="translate(26.15 -32.18)"/><path class="cls-4" d="M268,716.12h73q0,28.25,0,56.48c0,8.34.86,7.24-7.55,7.45-2.41.06-5.65-1.29-6.44,2.76l-59,0Z" transform="translate(26.15 -32.18)"/><path class="cls-3" d="M268,716.12v66.67H197c.34-7.27.89-14.53,1-21.8.15-15,.05-29.93.05-44.89Z" transform="translate(26.15 -32.18)"/><path class="cls-30" d="M327,782.81c.79-4,4-2.7,6.44-2.76,8.41-.21,7.54.89,7.55-7.45q0-28.25,0-56.48l44.57-.18c1.81,0,3.63-.13,5.44-.19l14,.37c0,15,.1,29.93-.05,44.89-.07,7.27-.62,14.54-1,21.81l-13,.33L333.93,783C331.62,783,329.31,782.87,327,782.81Z" transform="translate(26.15 -32.18)"/><path class="cls-5" d="M404,782.82c.34-7.27.89-14.54,1-21.81.15-15,.05-29.93.05-44.89h70c0,16.29.09,32.58-.05,48.87,0,6-.62,11.88-.95,17.82Z" transform="translate(26.15 -32.18)"/><path class="cls-30" d="M374,602.9l20.06.21,20.87,0H437c-2.15.6-4.35,1.85-6.43,1.67-6-.53-10.69,3.49-10.56,9.33.39,18.59.67,37.17,1,55.75H355c-.66-5-1.79-10.07-1.9-15.12-.28-12.59,0-25.19-.15-37.78-.07-5.13-.31-10.11,4.05-13.86Z" transform="translate(26.15 -32.18)"/><path class="cls-4" d="M357,603.12c-4.36,3.75-4.12,8.73-4.05,13.86.18,12.59-.13,25.19.15,37.78.11,5,1.24,10.08,1.9,15.12l-3,.22-72-.21q-.51-33.39-1-66.79Z" transform="translate(26.15 -32.18)"/><path class="cls-1" d="M280,669.89l72,.21v22.72H275q0-11.36,0-22.72Z" transform="translate(26.15 -32.18)"/><path class="cls-1" d="M357,603.12l-78,0-1-.21c.12-6.82.24-13.64.38-21,7.67,3.28,10.13,2.69,11.6-1.8l62.05,0h24q-1,11.4-2,22.81Z" transform="translate(26.15 -32.18)"/><path class="cls-4" d="M414.93,603.13l-20.87,0Z" transform="translate(26.15 -32.18)"/><path class="cls-16" d="M359.94,580.1h0Z" transform="translate(26.15 -32.18)"/><path class="cls-16" d="M353,580.1H352A2.37,2.37,0,0,1,353,580.1Z" transform="translate(26.15 -32.18)"/><path class="cls-3" d="M278,602.89l1,.21q.5,33.4,1,66.79l-5,.22-55-.22c-.33-19.36-.69-38.71-1-58.06,0-2.59-.49-4.35-3.37-5.23-1.14-.34-1.79-2.28-2.67-3.49h17.94Z" transform="translate(26.15 -32.18)"/><path class="cls-29" d="M230.94,603.11h0Z" transform="translate(26.15 -32.18)"/></svg>